<svg xmlns="http://www.w3.org/2000/svg" width="112" height="50" viewBox="0 0 112 50" fill="none"><path d="M26.5981 44.6542C26.5981 44.1802 26.7039 43.7568 26.9156 43.384C27.1319 43.0067 27.4242 42.7144 27.7923 42.5073C28.1651 42.2956 28.5816 42.1898 29.0418 42.1898C29.5803 42.1898 30.052 42.3278 30.457 42.604C30.8619 42.8801 31.145 43.2621 31.3061 43.7499H30.1946C30.0842 43.5198 29.9277 43.3472 29.7252 43.2322C29.5273 43.1171 29.2972 43.0596 29.0349 43.0596C28.7542 43.0596 28.5034 43.1263 28.2825 43.2598C28.0662 43.3886 27.8959 43.5727 27.7716 43.812C27.652 44.0513 27.5922 44.3321 27.5922 44.6542C27.5922 44.9718 27.652 45.2525 27.7716 45.4964C27.8959 45.7357 28.0662 45.9221 28.2825 46.0555C28.5034 46.1844 28.7542 46.2488 29.0349 46.2488C29.2972 46.2488 29.5273 46.1913 29.7252 46.0763C29.9277 45.9566 30.0842 45.7817 30.1946 45.5516H31.3061C31.145 46.044 30.8619 46.4283 30.457 46.7044C30.0566 46.976 29.5849 47.1117 29.0418 47.1117C28.5816 47.1117 28.1651 47.0082 27.7923 46.8011C27.4242 46.5894 27.1319 46.2972 26.9156 45.9244C26.7039 45.5516 26.5981 45.1282 26.5981 44.6542ZM33.8297 47.1324C33.4615 47.1324 33.1302 47.0519 32.8356 46.8908C32.5411 46.7252 32.3087 46.4927 32.1384 46.1936C31.9727 45.8945 31.8899 45.5493 31.8899 45.1581C31.8899 44.767 31.975 44.4218 32.1453 44.1227C32.3202 43.8235 32.5572 43.5934 32.8564 43.4323C33.1555 43.2667 33.4891 43.1838 33.8573 43.1838C34.2255 43.1838 34.5591 43.2667 34.8583 43.4323C35.1574 43.5934 35.3921 43.8235 35.5624 44.1227C35.7373 44.4218 35.8247 44.767 35.8247 45.1581C35.8247 45.5493 35.735 45.8945 35.5555 46.1936C35.3806 46.4927 35.1413 46.7252 34.8376 46.8908C34.5384 47.0519 34.2025 47.1324 33.8297 47.1324ZM33.8297 46.2903C34.0046 46.2903 34.168 46.2488 34.3198 46.166C34.4763 46.0786 34.6005 45.9497 34.6926 45.7794C34.7846 45.6091 34.8307 45.402 34.8307 45.1581C34.8307 44.7946 34.734 44.5161 34.5407 44.3229C34.352 44.125 34.1196 44.026 33.8435 44.026C33.5674 44.026 33.335 44.125 33.1463 44.3229C32.9622 44.5161 32.8702 44.7946 32.8702 45.1581C32.8702 45.5217 32.9599 45.8024 33.1394 46.0003C33.3235 46.1936 33.5536 46.2903 33.8297 46.2903ZM38.6529 43.1907C39.1085 43.1907 39.4767 43.3357 39.7574 43.6256C40.0381 43.911 40.1785 44.3113 40.1785 44.8268V47.0703H39.2121V44.9579C39.2121 44.6542 39.1361 44.4218 38.9843 44.2607C38.8324 44.0951 38.6253 44.0122 38.363 44.0122C38.096 44.0122 37.8844 44.0951 37.7279 44.2607C37.576 44.4218 37.5001 44.6542 37.5001 44.9579V47.0703H36.5336V43.246H37.5001V43.7223C37.6289 43.5566 37.7923 43.4277 37.9902 43.3357C38.1927 43.2391 38.4136 43.1907 38.6529 43.1907ZM43.2168 43.1907C43.6724 43.1907 44.0406 43.3357 44.3213 43.6256C44.602 43.911 44.7424 44.3113 44.7424 44.8268V47.0703H43.776V44.9579C43.776 44.6542 43.7 44.4218 43.5482 44.2607C43.3963 44.0951 43.1892 44.0122 42.9269 44.0122C42.66 44.0122 42.4483 44.0951 42.2918 44.2607C42.1399 44.4218 42.064 44.6542 42.064 44.9579V47.0703H41.0975V43.246H42.064V43.7223C42.1928 43.5566 42.3562 43.4277 42.5541 43.3357C42.7566 43.2391 42.9775 43.1907 43.2168 43.1907ZM49.2166 45.0753C49.2166 45.2134 49.2074 45.3376 49.189 45.4481H46.3932C46.4162 45.7242 46.5128 45.9405 46.6831 46.097C46.8534 46.2534 47.0628 46.3317 47.3113 46.3317C47.6703 46.3317 47.9257 46.1775 48.0775 45.8692H49.1199C49.0095 46.2373 48.7978 46.5411 48.4848 46.7804C48.1719 47.0151 47.7876 47.1324 47.332 47.1324C46.9638 47.1324 46.6325 47.0519 46.338 46.8908C46.048 46.7252 45.8202 46.4927 45.6545 46.1936C45.4935 45.8945 45.4129 45.5493 45.4129 45.1581C45.4129 44.7624 45.4935 44.4149 45.6545 44.1158C45.8156 43.8166 46.0411 43.5865 46.331 43.4254C46.621 43.2644 46.9546 43.1838 47.332 43.1838C47.6956 43.1838 48.02 43.2621 48.3054 43.4185C48.5953 43.575 48.8185 43.7982 48.975 44.0881C49.136 44.3735 49.2166 44.7025 49.2166 45.0753ZM48.2156 44.7992C48.211 44.5507 48.1213 44.3528 47.9464 44.2055C47.7715 44.0536 47.5575 43.9777 47.3044 43.9777C47.0651 43.9777 46.8626 44.0513 46.6969 44.1986C46.5358 44.3413 46.4369 44.5415 46.4001 44.7992H48.2156ZM49.6735 45.1581C49.6735 44.7624 49.754 44.4172 49.9151 44.1227C50.0762 43.8235 50.2994 43.5934 50.5847 43.4323C50.87 43.2667 51.1968 43.1838 51.5649 43.1838C52.039 43.1838 52.4301 43.3035 52.7385 43.5428C53.0514 43.7775 53.2608 44.1089 53.3667 44.5369H52.3243C52.2691 44.3712 52.1747 44.2423 52.0413 44.1503C51.9124 44.0536 51.7513 44.0053 51.558 44.0053C51.2819 44.0053 51.0633 44.1066 50.9022 44.309C50.7412 44.5069 50.6606 44.79 50.6606 45.1581C50.6606 45.5217 50.7412 45.8047 50.9022 46.0072C51.0633 46.2051 51.2819 46.3041 51.558 46.3041C51.9492 46.3041 52.2046 46.1292 52.3243 45.7794H53.3667C53.2608 46.1936 53.0514 46.5227 52.7385 46.7666C52.4255 47.0105 52.0344 47.1324 51.5649 47.1324C51.1968 47.1324 50.87 47.0519 50.5847 46.8908C50.2994 46.7252 50.0762 46.495 49.9151 46.2005C49.754 45.9014 49.6735 45.5539 49.6735 45.1581ZM55.1999 44.0398V45.8899C55.1999 46.0187 55.2298 46.1131 55.2896 46.1729C55.3541 46.2281 55.4599 46.2557 55.6072 46.2557H56.0559V47.0703H55.4484C54.6338 47.0703 54.2265 46.6745 54.2265 45.883V44.0398H53.7709V43.246H54.2265V42.3002H55.1999V43.246H56.0559V44.0398H55.1999ZM61.7508 43.7016C61.6404 43.4991 61.4885 43.3449 61.2952 43.2391C61.1019 43.1332 60.8764 43.0803 60.6187 43.0803C60.3334 43.0803 60.0803 43.1447 59.8594 43.2736C59.6385 43.4024 59.4659 43.5865 59.3416 43.8258C59.2174 44.0651 59.1552 44.3413 59.1552 44.6542C59.1552 44.9764 59.2174 45.2571 59.3416 45.4964C59.4705 45.7357 59.6477 45.9198 59.8732 46.0486C60.0987 46.1775 60.361 46.2419 60.6601 46.2419C61.0283 46.2419 61.3297 46.1453 61.5644 45.952C61.7991 45.7541 61.9533 45.4803 62.0269 45.1305H60.3702V44.3919H62.9796V45.2341C62.9152 45.57 62.7771 45.8807 62.5654 46.166C62.3537 46.4513 62.0799 46.6814 61.7439 46.8563C61.4126 47.0266 61.0398 47.1117 60.6256 47.1117C60.1608 47.1117 59.7397 47.0082 59.3623 46.8011C58.9896 46.5894 58.695 46.2972 58.4787 45.9244C58.267 45.5516 58.1612 45.1282 58.1612 44.6542C58.1612 44.1802 58.267 43.7568 58.4787 43.384C58.695 43.0067 58.9896 42.7144 59.3623 42.5073C59.7397 42.2956 60.1585 42.1898 60.6187 42.1898C61.1617 42.1898 61.6335 42.3232 62.0338 42.5902C62.4342 42.8525 62.7104 43.223 62.8622 43.7016H61.7508ZM64.661 41.962V47.0703H63.6946V41.962H64.661ZM67.3141 47.1324C66.9459 47.1324 66.6145 47.0519 66.32 46.8908C66.0255 46.7252 65.7931 46.4927 65.6228 46.1936C65.4571 45.8945 65.3743 45.5493 65.3743 45.1581C65.3743 44.767 65.4594 44.4218 65.6297 44.1227C65.8046 43.8235 66.0416 43.5934 66.3407 43.4323C66.6399 43.2667 66.9735 43.1838 67.3417 43.1838C67.7098 43.1838 68.0435 43.2667 68.3426 43.4323C68.6418 43.5934 68.8765 43.8235 69.0468 44.1227C69.2216 44.4218 69.3091 44.767 69.3091 45.1581C69.3091 45.5493 69.2193 45.8945 69.0399 46.1936C68.865 46.4927 68.6257 46.7252 68.3219 46.8908C68.0228 47.0519 67.6868 47.1324 67.3141 47.1324ZM67.3141 46.2903C67.4889 46.2903 67.6523 46.2488 67.8042 46.166C67.9607 46.0786 68.0849 45.9497 68.177 45.7794C68.269 45.6091 68.315 45.402 68.315 45.1581C68.315 44.7946 68.2184 44.5161 68.0251 44.3229C67.8364 44.125 67.604 44.026 67.3279 44.026C67.0517 44.026 66.8193 44.125 66.6307 44.3229C66.4466 44.5161 66.3545 44.7946 66.3545 45.1581C66.3545 45.5217 66.4443 45.8024 66.6237 46.0003C66.8078 46.1936 67.0379 46.2903 67.3141 46.2903ZM70.9844 43.8051C71.1087 43.621 71.279 43.4715 71.4953 43.3564C71.7162 43.2414 71.967 43.1838 72.2477 43.1838C72.5745 43.1838 72.869 43.2644 73.1313 43.4254C73.3982 43.5865 73.6076 43.8166 73.7595 44.1158C73.916 44.4103 73.9942 44.7532 73.9942 45.1443C73.9942 45.5355 73.916 45.883 73.7595 46.1867C73.6076 46.4858 73.3982 46.7183 73.1313 46.8839C72.869 47.0496 72.5745 47.1324 72.2477 47.1324C71.9624 47.1324 71.7116 47.0772 71.4953 46.9668C71.2836 46.8517 71.1133 46.7044 70.9844 46.525V47.0703H70.018V41.962H70.9844V43.8051ZM73.0071 45.1443C73.0071 44.9142 72.9587 44.7163 72.8621 44.5507C72.7701 44.3804 72.6458 44.2515 72.4893 44.1641C72.3375 44.0766 72.1718 44.0329 71.9923 44.0329C71.8174 44.0329 71.6517 44.0789 71.4953 44.171C71.3434 44.2584 71.2191 44.3873 71.1225 44.5576C71.0305 44.7278 70.9844 44.928 70.9844 45.1581C70.9844 45.3882 71.0305 45.5884 71.1225 45.7587C71.2191 45.929 71.3434 46.0602 71.4953 46.1522C71.6517 46.2396 71.8174 46.2834 71.9923 46.2834C72.1718 46.2834 72.3375 46.2373 72.4893 46.1453C72.6458 46.0532 72.7701 45.9221 72.8621 45.7518C72.9587 45.5815 73.0071 45.379 73.0071 45.1443ZM74.448 45.1443C74.448 44.7578 74.5239 44.4149 74.6758 44.1158C74.8323 43.8166 75.0417 43.5865 75.304 43.4254C75.5709 43.2644 75.8677 43.1838 76.1945 43.1838C76.4798 43.1838 76.7283 43.2414 76.94 43.3564C77.1563 43.4715 77.3289 43.6164 77.4578 43.7913V43.246H78.4311V47.0703H77.4578V46.5112C77.3335 46.6906 77.1609 46.8402 76.94 46.9599C76.7237 47.0749 76.4729 47.1324 76.1876 47.1324C75.8654 47.1324 75.5709 47.0496 75.304 46.8839C75.0417 46.7183 74.8323 46.4858 74.6758 46.1867C74.5239 45.883 74.448 45.5355 74.448 45.1443ZM77.4578 45.1581C77.4578 44.9234 77.4117 44.7232 77.3197 44.5576C77.2277 44.3873 77.1034 44.2584 76.9469 44.171C76.7905 44.0789 76.6225 44.0329 76.443 44.0329C76.2635 44.0329 76.0978 44.0766 75.946 44.1641C75.7941 44.2515 75.6699 44.3804 75.5732 44.5507C75.4812 44.7163 75.4351 44.9142 75.4351 45.1443C75.4351 45.3744 75.4812 45.5769 75.5732 45.7518C75.6699 45.9221 75.7941 46.0532 75.946 46.1453C76.1024 46.2373 76.2681 46.2834 76.443 46.2834C76.6225 46.2834 76.7905 46.2396 76.9469 46.1522C77.1034 46.0602 77.2277 45.9313 77.3197 45.7656C77.4117 45.5953 77.4578 45.3928 77.4578 45.1581ZM80.3415 41.962V47.0703H79.375V41.962H80.3415ZM82.2627 41.962V47.0703H81.2963V41.962H82.2627ZM86.8763 43.246L84.5085 48.8789H83.4799L84.3083 46.9737L82.7758 43.246H83.8596L84.8467 45.9175L85.8477 43.246H86.8763Z" fill="#ffffff"></path><g clip-path="url(#clip0_291_17)"><mask id="mask0_291_17" style="mask-type:luminance" maskUnits="userSpaceOnUse" x="0" y="0" width="112" height="35"><path d="M112 0H0V34.1905H112V0Z" fill="white"></path></mask><g mask="url(#mask0_291_17)"><path d="M0 0.109936C0.122875 0.102766 0.22087 0.0914981 0.319373 0.0914981C1.37701 0.0904733 2.43415 0.10123 3.49126 0.0884252C5.34962 0.0664012 7.20747 0.0295245 9.06585 0.000330401C10.0041 -0.0145228 10.228 0.472557 10.4067 1.23109C10.4642 1.47489 10.5525 1.71152 10.62 1.95326C10.6698 2.13099 10.7084 2.31128 10.7521 2.49054C10.8825 3.03038 11.0044 3.57277 11.1465 4.10954C11.2883 4.64373 11.4589 5.16974 11.6 5.70395C11.7071 6.10908 11.7817 6.52291 11.8823 6.93009C11.9691 7.28093 12.0722 7.62768 12.1692 7.97597C12.2205 8.16136 12.2793 8.34474 12.3256 8.53116C12.4216 8.92193 12.5017 9.31683 12.6058 9.70507C12.7536 10.2557 12.9242 10.8001 13.0724 11.3507C13.1735 11.7241 13.2461 12.1057 13.3441 12.4801C13.4482 12.877 13.5725 13.2683 13.6771 13.6652C13.7757 14.0391 13.8554 14.4176 13.9513 14.7925C14.0534 15.191 14.1651 15.5875 14.2712 15.9848C14.3165 16.1549 14.3591 16.3255 14.4018 16.4961C14.5384 17.0431 14.6678 17.5916 14.8125 18.136C14.9156 18.5243 15.0495 18.9042 15.1517 19.2925C15.2456 19.6505 15.303 20.0178 15.3994 20.3753C15.5082 20.7778 15.6376 21.1744 15.7655 21.5712C15.8834 21.938 15.9981 22.3062 16.1367 22.6647C16.4946 23.5912 17.0202 24.3837 17.9255 24.8583C18.3287 25.0699 18.7496 25.2194 19.204 25.2604C19.6218 25.2978 20.0397 25.3589 20.4577 25.3593C25.4228 25.3634 30.3887 25.3674 35.3538 25.3475C36.4923 25.3429 37.6306 25.2507 38.7689 25.1938C39.1549 25.1743 39.5407 25.1427 39.9262 25.1119C39.9901 25.1067 40.0738 25.0975 40.1104 25.056C40.275 24.8686 40.4399 24.6791 40.5786 24.4722C40.7944 24.1495 40.7273 23.8264 40.6152 23.4647C40.3821 22.7113 39.8252 22.4055 39.1422 22.2253C38.4116 22.0322 37.6677 21.9907 36.9177 22.0266C36.7085 22.0368 36.5014 22.0947 36.2933 22.0972C36.2115 22.0982 36.0917 22.0276 36.0525 21.9548C35.8108 21.5087 35.6752 21.0278 35.5799 20.5259C35.4525 19.8555 35.266 19.1968 35.1128 18.5314C35.06 18.3024 35.0365 18.0664 34.9867 17.8369C34.8852 17.3702 34.7735 16.9058 34.6685 16.4397C34.6055 16.1601 34.5506 15.8783 34.4856 15.5992C34.4207 15.3206 34.346 15.0446 34.2791 14.767C34.2297 14.5631 34.185 14.3587 34.1398 14.1539C34.0997 13.9726 34.0606 13.7913 34.0241 13.6089C33.9637 13.3082 34.1197 13.1187 34.4679 13.0655C34.7994 13.0148 35.1314 12.9676 35.462 12.9144C35.7915 12.8616 36.0683 12.5436 36.0713 12.2096C36.0764 11.6765 36.1104 11.1459 35.8388 10.6454C35.5413 10.0974 35.0741 9.81618 34.5019 9.66874C33.6733 9.45513 32.8294 9.39419 31.9768 9.41975C31.5986 9.43103 31.4879 9.513 31.5234 9.89046C31.5533 10.2049 31.6534 10.5128 31.7271 10.8222C31.8149 11.1909 31.9048 11.5586 31.9982 11.9259C32.1165 12.3883 32.2429 12.8488 32.3587 13.3118C32.4075 13.507 32.437 13.7072 32.4775 13.9049C32.607 14.5411 32.7325 15.1782 32.8695 15.8123C32.9848 16.3459 33.1086 16.8776 33.2381 17.4082C33.3473 17.8563 33.4793 18.2983 33.5833 18.7475C33.6784 19.1578 33.7407 19.5757 33.8337 19.987C33.9429 20.47 34.0744 20.9479 34.1856 21.4304C34.2338 21.6404 34.2541 21.857 34.2932 22.108C34.1779 22.108 34.0713 22.108 33.9651 22.108C30.9878 22.108 28.0098 22.108 25.0324 22.108C24.5877 22.108 24.5842 22.0829 24.4851 21.6486C24.3415 21.0181 24.1596 20.3957 24.0028 19.7678C23.9112 19.4006 23.8452 19.0268 23.7534 18.6594C23.6397 18.2041 23.5037 17.7544 23.3909 17.2986C23.296 16.9145 23.2304 16.5227 23.1355 16.1385C23.0288 15.7069 22.8973 15.2817 22.7888 14.8504C22.6963 14.4832 22.6293 14.1098 22.5369 13.7425C22.4221 13.2867 22.2906 12.835 22.1723 12.3796C22.1256 12.2009 22.0976 12.0175 22.0571 11.8378C21.9271 11.2642 21.8046 10.688 21.662 10.1174C21.5193 9.5483 21.3457 8.98749 21.2045 8.41848C21.0629 7.84741 20.9552 7.26762 20.813 6.69654C20.6689 6.11829 20.4926 5.54875 20.346 4.97102C20.2424 4.56384 20.1712 4.14898 20.0717 3.74077C19.9737 3.34023 19.8554 2.94535 19.7517 2.54636C19.7138 2.39988 19.7 2.24726 19.664 2.10026C19.5248 1.53737 19.3801 0.976028 19.2406 0.413145C19.2308 0.375244 19.2451 0.331709 19.2507 0.255908C19.3573 0.255908 19.4558 0.256932 19.5549 0.255908C20.7725 0.241566 21.9935 0.274858 23.2076 0.202128C26.2911 0.0172323 29.3762 0.111985 32.4603 0.110961C57.4906 0.10123 82.521 0.105326 107.552 0.105839C107.958 0.105839 108.368 0.0735718 108.769 0.120692C109.548 0.213397 110.333 0.316344 111.031 0.723013C111.379 0.92635 111.702 1.164 111.853 1.57015C112.006 1.98297 111.987 2.38811 111.763 2.76148C111.398 3.36995 110.835 3.69057 110.173 3.90774C109.727 4.0532 109.289 4.03271 108.848 4.03322C102.58 4.03935 96.3116 4.03732 90.0438 4.03732C74.1914 4.03732 58.339 4.03732 42.4867 4.0409C42.3368 4.0409 42.1876 4.09467 42.0379 4.12336C42.1039 4.25039 42.1517 4.39225 42.2389 4.50134C42.7523 5.14004 43.2016 5.82021 43.5256 6.57515C43.7352 7.06428 43.9232 7.56519 44.0847 8.07277C44.2319 8.53629 44.3314 9.0157 44.4482 9.48898C44.4624 9.54582 44.4573 9.60779 44.4573 9.66771C44.4589 10.3591 44.4765 11.0511 44.4528 11.7415C44.4416 12.0581 44.3756 12.3796 44.2861 12.6844C44.1694 13.0845 44.0359 13.4865 43.8525 13.8589C43.658 14.2532 43.3966 14.6133 43.1645 14.9887C42.9493 15.337 42.7239 15.6792 42.5227 16.0356C42.4411 16.18 42.5208 16.3101 42.6807 16.3469C43.6769 16.5754 44.5167 17.1208 45.2777 17.7611C46.0393 18.4018 46.7158 19.1405 47.292 19.9697C47.8348 20.7513 48.2989 21.5738 48.6731 22.4445C48.8878 22.9444 49.0581 23.4684 49.1955 23.9958C49.3529 24.5971 49.5028 25.2093 49.5612 25.8253C49.6109 26.3508 49.5414 26.8907 49.4977 27.4223C49.4723 27.7323 49.4038 28.0399 49.3368 28.3447C49.285 28.5809 49.2246 28.8184 49.133 29.0408C49.057 29.2273 49.1052 29.3226 49.2813 29.3568C49.4123 29.3825 49.55 29.3835 49.6845 29.3835C60.4361 29.3845 71.1876 29.3845 81.9392 29.3845C90.4909 29.3845 99.0434 29.3839 107.596 29.386C108.146 29.386 108.696 29.3952 109.244 29.4254C109.475 29.4382 109.71 29.4941 109.93 29.5704C110.322 29.7067 110.717 29.8475 111.085 30.0338C111.724 30.3555 112.023 30.9604 111.925 31.6667C111.88 31.9909 111.672 32.2328 111.447 32.4462C111.009 32.8611 110.472 33.0552 109.893 33.2105C109.213 33.3929 108.536 33.3211 107.859 33.3221C98.656 33.3384 89.4526 33.3394 80.2493 33.3523C59.9587 33.3805 39.6682 33.4132 19.3776 33.444C19.0477 33.4446 18.7171 33.4532 18.388 33.4333C17.9945 33.4096 17.5919 33.4035 17.212 33.3118C16.0864 33.0404 14.9887 32.6927 13.9488 32.1507C12.8044 31.554 11.7564 30.8278 10.8094 29.9591C9.8965 29.1217 8.97844 28.2715 8.33415 27.1965C7.84774 26.3851 7.44103 25.5237 7.02265 24.6725C6.80532 24.23 6.62458 23.7669 6.4565 23.3023C6.26559 22.7758 6.10768 22.2375 5.93454 21.7049C5.69693 20.972 5.44914 20.2422 5.2237 19.5055C5.079 19.0334 4.97439 18.5488 4.83679 18.074C4.69006 17.5675 4.5225 17.0665 4.36967 16.5616C4.3189 16.393 4.2864 16.219 4.24274 16.0484C4.11478 15.5434 3.99242 15.0364 3.85431 14.5339C3.70757 14.0012 3.53492 13.4757 3.39276 12.9415C3.25009 12.4058 3.14194 11.8609 2.99926 11.3256C2.85861 10.7981 2.68598 10.2797 2.54026 9.7537C2.43921 9.38906 2.36357 9.01724 2.2676 8.65046C2.16097 8.24434 2.04266 7.84126 1.93298 7.43562C1.88679 7.26557 1.85429 7.09143 1.80707 6.92191C1.64205 6.33291 1.46383 5.74747 1.30846 5.15591C1.12517 4.45782 0.967764 3.75255 0.784977 3.05392C0.68749 2.6821 0.551413 2.32049 0.450371 1.94918C0.35593 1.60089 0.2884 1.24543 0.204114 0.894082C0.141661 0.643113 0.0731155 0.392146 0 0.109936Z" fill="#ffffff"></path><path d="M76.5732 25.9199C69.714 25.9199 62.8548 25.9246 55.9951 25.9101C55.525 25.9091 55.0304 25.8339 54.5923 25.6695C54.1663 25.5097 53.8546 25.1501 53.6509 24.704C53.4707 24.3085 53.4636 23.8963 53.5407 23.5087C53.5996 23.2131 53.7778 22.8893 54.0018 22.6927C54.3486 22.3879 54.7659 22.1529 55.1807 21.9424C55.4098 21.826 55.6921 21.8072 55.9535 21.7672C56.119 21.742 56.2911 21.7564 56.4602 21.7564C69.7983 21.7559 83.1363 21.7559 96.474 21.7564C96.6265 21.7564 96.7789 21.7678 96.9305 21.7569C97.5182 21.7149 98.0201 21.9655 98.5237 22.2179C98.874 22.3931 99.178 22.6129 99.3843 22.9611C99.6723 23.4456 99.7035 23.965 99.5587 24.4848C99.3869 25.1066 98.9759 25.5491 98.3662 25.7474C98.0353 25.8548 97.674 25.9133 97.3271 25.9133C90.41 25.9225 83.4917 25.9199 76.5732 25.9199Z" fill="#ffffff"></path><path d="M76.6292 7.38235C83.3375 7.38235 90.0453 7.3803 96.7535 7.38747C97.2049 7.38799 97.6597 7.43048 98.1051 7.50323C99.2319 7.68709 99.9283 8.97264 99.5182 10.0544C99.231 10.8109 98.6862 11.2211 97.9039 11.302C97.3767 11.3563 96.8453 11.3897 96.3157 11.3897C82.8654 11.3943 69.4152 11.3958 55.9651 11.3861C55.3542 11.3856 54.7337 11.3061 54.2234 10.8989C53.8283 10.5834 53.5888 10.1727 53.5167 9.66209C53.4009 8.84357 53.737 8.23923 54.3981 7.81155C54.6302 7.66148 54.9109 7.58005 55.1786 7.49554C55.8289 7.28964 56.5016 7.38799 57.1637 7.38747C63.6528 7.37928 70.1407 7.38235 76.6292 7.38235Z" fill="#ffffff"></path><path d="M68.1815 14.5028C73.6023 14.5028 79.0234 14.5028 84.444 14.5028C84.7994 14.5028 85.1548 14.4951 85.4781 14.6815C85.8444 14.893 86.1047 15.1948 86.2908 15.58C86.5105 16.0351 86.5114 16.5283 86.4095 16.9772C86.2924 17.497 85.959 17.9261 85.4495 18.1807C85.0613 18.3744 84.6613 18.4317 84.2327 18.4317C73.5347 18.4265 62.837 18.4261 52.1388 18.4317C51.6838 18.4317 51.2482 18.3784 50.8476 18.1643C50.4135 17.9323 50.0794 17.5923 49.9718 17.0924C49.9068 16.7901 49.8743 16.4762 49.8711 16.1673C49.8656 15.5737 50.3875 14.849 50.9593 14.661C51.2635 14.5612 51.5975 14.5099 51.918 14.5094C57.3396 14.5002 62.7603 14.5028 68.1815 14.5028Z" fill="#ffffff"></path></g></g><defs><clipPath id="clip0_291_17"><rect width="112" height="34.1905" fill="white"></rect></clipPath></defs></svg>
