<svg xmlns="http://www.w3.org/2000/svg" width="50" height="50" viewBox="0 0 50 50" fill="none"><path fill-rule="evenodd" clip-rule="evenodd" d="M12.7479 2.10415C14.724 1.85207 18.0156 1.60623 23.4385 1.56665V11.4604C16.725 11.4864 11.7333 11.6854 8.45104 11.8729C6.44851 11.9828 4.52846 12.707 2.95208 13.9469C3.04375 13.726 3.14132 13.5059 3.24479 13.2864C4.68542 10.2344 6.45 7.33748 7.66354 5.46144C8.78229 3.73019 10.5177 2.38853 12.7479 2.10415ZM46.7552 13.2864C46.8594 13.5059 46.9569 13.726 47.0479 13.9469C45.4711 12.7072 43.5507 11.9834 41.5479 11.8739C38.2667 11.6854 33.275 11.4875 26.5625 11.4604V1.56665C31.9844 1.60623 35.276 1.85207 37.2521 2.10415C39.4844 2.38853 41.2177 3.73019 42.3375 5.46144C43.55 7.33644 45.3156 10.2344 46.7552 13.2864ZM8.59792 48.026C12.0792 48.2239 17.5417 48.4375 24.9979 48.4375C32.4542 48.4375 37.9167 48.225 41.3979 48.026C44.8271 47.8291 47.6542 45.2906 47.9854 41.7864C48.2219 39.2844 48.4354 35.7739 48.4354 31.25C48.4354 26.726 48.2219 23.2156 47.9854 20.7135C47.6542 17.2094 44.8271 14.6708 41.3979 14.4739C37.9167 14.276 32.4552 14.0625 24.9979 14.0625C17.5406 14.0625 12.0792 14.275 8.59792 14.475C5.16875 14.6708 2.34167 17.2094 2.01042 20.7135C1.77604 23.2156 1.5625 26.726 1.5625 31.25C1.5625 35.7739 1.77604 39.2844 2.0125 41.7864C2.34375 45.2906 5.17083 47.8291 8.6 48.026M17.4406 29.8708C16.4292 31.1625 17.1323 32.7104 18.7719 32.8062C19.5042 32.8489 20.3937 32.8875 21.4698 32.9146C21.5458 34.8208 21.6448 36.7375 21.7167 38.0479C21.7719 39.0687 22.4302 39.9625 23.4406 40.1208C23.8958 40.1906 24.425 40.2427 25 40.2427C25.575 40.2427 26.1042 40.1906 26.5604 40.1198C27.5719 39.9635 28.2312 39.0677 28.2865 38.0458C28.3573 36.7344 28.4552 34.8198 28.5312 32.9146C29.4304 32.8934 30.3291 32.8573 31.2271 32.8062C32.8667 32.7104 33.5708 31.1625 32.5583 29.8708C31.7723 28.8734 30.957 27.8993 30.1135 26.95C28.5104 25.1344 27.2844 24.051 26.4344 23.4125C25.5594 22.7542 24.4406 22.7542 23.5646 23.4125C22.7156 24.051 21.4896 25.1344 19.8865 26.95C19.0426 27.8993 18.227 28.8734 17.4406 29.8708Z" fill="#71A3EE"></path></svg>